<?xml version="1.0" encoding="utf-8"?>
<!-- Generator: Adobe Illustrator 26.1.0, SVG Export Plug-In . SVG Version: 6.00 Build 0)  -->
<svg version="1.1" id="Layer_3" xmlns="http://www.w3.org/2000/svg" xmlns:xlink="http://www.w3.org/1999/xlink" x="0px" y="0px"
	 viewBox="0 0 2160 2160" style="enable-background:new 0 0 2160 2160;" xml:space="preserve">
<style type="text/css">
	.st0{fill:#C7A17A;}
</style>
<g id="Layer_3">
	<g>
		<path class="st0" d="M616.5,1237.4c44-214.9,234.8-376.5,463.5-376.5c95.6,0,184.5,28.2,258.9,76.8c15.5-8.2,42.5-22.1,66.2-32.5
			c-49.7-37.6-106.1-66.8-167.2-85.5v-52.1c0-44.4-36-80.4-80.4-80.4h-155c-44.4,0-80.4,36-80.4,80.4v52.1
			c-186.4,57-329.7,212.2-369.1,405C561.1,1228,584.8,1236.4,616.5,1237.4z M984.4,772.2c0-12.1,9.8-22,22-22h147.2
			c12.1,0,22,9.8,22,22v32.5c-31-5.5-63-8.4-95.6-8.4s-64.6,2.9-95.6,8.4V772.2z M680.7,1226.3c38.4-157.4,160.3-280.1,313.7-313.9
			c-106.1,43.4-192.7,156.1-225.9,295.1C732.5,1219.9,698.4,1224.6,680.7,1226.3z M1260.9,1114.4
			c-185.3,104.1-335.8,167.4-392.2,189.8c-4.7-14.3-12.5-24.5-19.5-31.1c-11.4-10.9-26-18.6-44.5-23c44.9-14,142.3-47.2,252.7-102.1
			c83.1-41.3,362.9-214.8,480.8-234.7c59.1-10,110.6,12,147.2,36.4C1580.1,943.6,1469.7,997.1,1260.9,1114.4z M1757,1032.2
			c-58.6-22.6-129.5-4.9-211.8,30.9c42.6,72.9,68.4,156.7,72.2,246.1c-9.1-6.3-19.6-11.4-31.2-15.1c-10.9-3.4-22.7-5.6-35.3-6.4
			c-6.7-71.5-29.5-138.4-64.7-197.1c-16.4,8.1-33.2,16.6-50.4,25.4c-19.2,9.9-39,20.2-59.2,30.6c-9.9,5.1-19.9,10.3-30,15.5
			c-109.1,55.9-191.3,90-308.5,126.8c9.9-3.8,182.5-94.5,327.2-173c18.2-9.9,35.9-19.5,52.8-28.8c6.9-3.8,13.7-7.5,20.3-11.2
			c9.6-5.3,19-10.3,28.3-15.2c20.5-10.6,40.3-20.1,59.3-28.2C1628.9,988.6,1708.2,983.2,1757,1032.2z M1031,1441.2h121.9v32.7H961.4
			v-28.1l119.9-82.2H964.6v-31.3h184.8v27.7L1031,1441.2z M1251.6,1441.2h121.9v32.7H1182v-28.1l119.9-82.2h-116.8v-31.3H1370v27.7
			L1251.6,1441.2z M873.3,1332.2h52.8v141.6h-52.8V1332.2z M791.5,1375.5h-1.9c23-0.8,43.3-18.7,43.3-41.6c0-1.1,0-2.1-0.1-3.2
			c-0.3-27.7-19.4-47.5-84.8-45.4h-98.1h-26h-27.6c-11.4,0-22.7-0.8-34-2.5c-38.1-6-76.4-22.9-85.4-66.2
			c-18.6-89.5,123.8-219,123.8-219s-214.7,104.7-198.4,240c9.9,82.2,85,108,142.5,115.6v120.7h212.9c63.2,0,82-20.8,82.4-49.6
			c0.1-1.2,0.1-2.3,0.1-3.5C840.4,1395.3,817.3,1375.5,791.5,1375.5z M748.5,1317.6c17.9,0,27.8,10,27.8,22.4
			c0,6.2-2.9,11.6-7.8,15.6c-4.9,4-11.9,6.5-20,6.8H600.9v-44.8H748.5z M757.2,1439.4H600.9v-44.8h156.3c8.2,0.3,15.1,2.8,20,6.8
			c4.9,4,7.8,9.4,7.8,15.6C785,1429.3,775,1439.4,757.2,1439.4z M1619.6,1389.6c0,31.4,0,84.2,0,84.2h-52v-73.1
			c0-21.4-17.4-38.8-38.8-38.8h-8.6c-31.9,0-60.8,12.9-60.8,40v71.9h-53.4v-141.6h50.1v22.1c0,0,13.2-14.3,42.3-22.1
			c11-2.9,24.2-5,39.9-5c13.8,0,25.7,1.8,35.8,5C1605.8,1342.2,1619.6,1365.8,1619.6,1389.6z"/>
	</g>
</g>
</svg>
